<svg id="visual" viewBox="0 0 1920 1080" width="1920" height="1080" xmlns="http://www.w3.org/2000/svg" xmlns:xlink="http://www.w3.org/1999/xlink" version="1.1"><path d="M0 332L45.7 339.3C91.3 346.7 182.7 361.3 274.2 357C365.7 352.7 457.3 329.3 548.8 319C640.3 308.7 731.7 311.3 823 303C914.3 294.7 1005.7 275.3 1097 265.7C1188.3 256 1279.7 256 1371.2 284.3C1462.7 312.7 1554.3 369.3 1645.8 385.8C1737.3 402.3 1828.7 378.7 1874.3 366.8L1920 355L1920 0L1874.3 0C1828.7 0 1737.3 0 1645.8 0C1554.3 0 1462.7 0 1371.2 0C1279.7 0 1188.3 0 1097 0C1005.7 0 914.3 0 823 0C731.7 0 640.3 0 548.8 0C457.3 0 365.7 0 274.2 0C182.7 0 91.3 0 45.7 0L0 0Z" fill="#dbe1f1"></path><path d="M0 229L45.7 237.8C91.3 246.7 182.7 264.3 274.2 277.3C365.7 290.3 457.3 298.7 548.8 283.3C640.3 268 731.7 229 823 209.3C914.3 189.7 1005.7 189.3 1097 197C1188.3 204.7 1279.7 220.3 1371.2 225.7C1462.7 231 1554.3 226 1645.8 244.7C1737.3 263.3 1828.7 305.7 1874.3 326.8L1920 348L1920 0L1874.3 0C1828.7 0 1737.3 0 1645.8 0C1554.3 0 1462.7 0 1371.2 0C1279.7 0 1188.3 0 1097 0C1005.7 0 914.3 0 823 0C731.7 0 640.3 0 548.8 0C457.3 0 365.7 0 274.2 0C182.7 0 91.3 0 45.7 0L0 0Z" fill="#b1c1f7"></path><path d="M0 203L45.7 207.8C91.3 212.7 182.7 222.3 274.2 211C365.7 199.7 457.3 167.3 548.8 159.7C640.3 152 731.7 169 823 182.7C914.3 196.3 1005.7 206.7 1097 217.8C1188.3 229 1279.7 241 1371.2 226C1462.7 211 1554.3 169 1645.8 164.2C1737.3 159.3 1828.7 191.7 1874.3 207.8L1920 224L1920 0L1874.3 0C1828.7 0 1737.3 0 1645.8 0C1554.3 0 1462.7 0 1371.2 0C1279.7 0 1188.3 0 1097 0C1005.7 0 914.3 0 823 0C731.7 0 640.3 0 548.8 0C457.3 0 365.7 0 274.2 0C182.7 0 91.3 0 45.7 0L0 0Z" fill="#8ca0fa"></path><path d="M0 116L45.7 106C91.3 96 182.7 76 274.2 79.8C365.7 83.7 457.3 111.3 548.8 121.8C640.3 132.3 731.7 125.7 823 127C914.3 128.3 1005.7 137.7 1097 138C1188.3 138.3 1279.7 129.7 1371.2 128.3C1462.7 127 1554.3 133 1645.8 124.3C1737.3 115.7 1828.7 92.3 1874.3 80.7L1920 69L1920 0L1874.3 0C1828.7 0 1737.3 0 1645.8 0C1554.3 0 1462.7 0 1371.2 0C1279.7 0 1188.3 0 1097 0C1005.7 0 914.3 0 823 0C731.7 0 640.3 0 548.8 0C457.3 0 365.7 0 274.2 0C182.7 0 91.3 0 45.7 0L0 0Z" fill="#6c7df9"></path></svg>